<svg width="33" height="33" viewBox="0 0 33 33" fill="none" xmlns="http://www.w3.org/2000/svg">
<g filter="url(#filter0_i_1_4308)">
<rect width="33" height="33" rx="16.5" fill="#F38120"/>
</g>
<path d="M18.4086 16.9991L22.7045 12.7127C22.8926 12.5245 22.9983 12.2693 22.9983 12.0033C22.9983 11.7372 22.8926 11.482 22.7045 11.2938C22.5164 11.1057 22.2612 11 21.9952 11C21.7291 11 21.474 11.1057 21.2859 11.2938L17 15.5903L12.7141 11.2938C12.526 11.1057 12.2709 11 12.0048 11C11.7388 11 11.4836 11.1057 11.2955 11.2938C11.1074 11.482 11.0017 11.7372 11.0017 12.0033C11.0017 12.2693 11.1074 12.5245 11.2955 12.7127L15.5914 16.9991L11.2955 21.2856C11.2019 21.3785 11.1276 21.489 11.0768 21.6108C11.0261 21.7325 11 21.8631 11 21.995C11 22.1269 11.0261 22.2575 11.0768 22.3793C11.1276 22.501 11.2019 22.6116 11.2955 22.7044C11.3884 22.7981 11.4989 22.8724 11.6206 22.9232C11.7424 22.9739 11.8729 23 12.0048 23C12.1367 23 12.2673 22.9739 12.389 22.9232C12.5108 22.8724 12.6213 22.7981 12.7141 22.7044L17 18.408L21.2859 22.7044C21.3787 22.7981 21.4892 22.8724 21.611 22.9232C21.7327 22.9739 21.8633 23 21.9952 23C22.1271 23 22.2576 22.9739 22.3794 22.9232C22.5011 22.8724 22.6116 22.7981 22.7045 22.7044C22.7981 22.6116 22.8724 22.501 22.9232 22.3793C22.9739 22.2575 23 22.1269 23 21.995C23 21.8631 22.9739 21.7325 22.9232 21.6108C22.8724 21.489 22.7981 21.3785 22.7045 21.2856L18.4086 16.9991Z" fill="white"/>
<defs>
<filter id="filter0_i_1_4308" x="0" y="0" width="33" height="33" filterUnits="userSpaceOnUse" color-interpolation-filters="sRGB">
<feFlood flood-opacity="0" result="BackgroundImageFix"/>
<feBlend mode="normal" in="SourceGraphic" in2="BackgroundImageFix" result="shape"/>
<feColorMatrix in="SourceAlpha" type="matrix" values="0 0 0 0 0 0 0 0 0 0 0 0 0 0 0 0 0 0 127 0" result="hardAlpha"/>
<feOffset/>
<feGaussianBlur stdDeviation="11"/>
<feComposite in2="hardAlpha" operator="arithmetic" k2="-1" k3="1"/>
<feColorMatrix type="matrix" values="0 0 0 0 1 0 0 0 0 1 0 0 0 0 1 0 0 0 0.25 0"/>
<feBlend mode="normal" in2="shape" result="effect1_innerShadow_1_4308"/>
</filter>
</defs>
</svg>
